<svg xmlns="http://www.w3.org/2000/svg" viewBox="0 0 800 200" fill="none">
  <!-- Wave at top -->
  <path d="M0,40 Q200,10 400,40 T800,40 L800,0 L0,0 Z" fill="none" stroke="#3b82f6" stroke-width="2"/>

  <!-- Main footer area -->
  <rect x="0" y="40" width="800" height="130" fill="none" stroke="#1e40af" stroke-width="1"/>

  <!-- Column 1 - Logo & Contact -->
  <rect x="20" y="55" width="90" height="12" rx="3" fill="none" stroke="#93c5fd" stroke-width="1.5"/>
  <line x1="20" y1="75" x2="130" y2="75" stroke="#93c5fd" stroke-width="1"/>
  <line x1="20" y1="83" x2="120" y2="83" stroke="#93c5fd" stroke-width="1"/>
  <circle cx="26" cy="98" r="2.5" fill="none" stroke="#93c5fd" stroke-width="1"/>
  <line x1="32" y1="98" x2="90" y2="98" stroke="#93c5fd" stroke-width="0.8"/>
  <circle cx="26" cy="108" r="2.5" fill="none" stroke="#93c5fd" stroke-width="1"/>
  <line x1="32" y1="108" x2="95" y2="108" stroke="#93c5fd" stroke-width="0.8"/>
  <circle cx="26" cy="118" r="2.5" fill="none" stroke="#93c5fd" stroke-width="1"/>
  <line x1="32" y1="118" x2="100" y2="118" stroke="#93c5fd" stroke-width="0.8"/>

  <!-- Column 2 - Quick Links -->
  <rect x="220" y="55" width="75" height="10" rx="2" fill="none" stroke="#ffffff" stroke-width="1.5"/>
  <line x1="220" y1="73" x2="270" y2="73" stroke="#93c5fd" stroke-width="0.8"/>
  <line x1="220" y1="81" x2="265" y2="81" stroke="#93c5fd" stroke-width="0.8"/>
  <line x1="220" y1="89" x2="275" y2="89" stroke="#93c5fd" stroke-width="0.8"/>
  <line x1="220" y1="97" x2="260" y2="97" stroke="#93c5fd" stroke-width="0.8"/>
  <line x1="220" y1="105" x2="270" y2="105" stroke="#93c5fd" stroke-width="0.8"/>

  <!-- Column 3 - Services -->
  <rect x="360" y="55" width="65" height="10" rx="2" fill="none" stroke="#ffffff" stroke-width="1.5"/>
  <line x1="360" y1="73" x2="405" y2="73" stroke="#93c5fd" stroke-width="0.8"/>
  <line x1="360" y1="81" x2="410" y2="81" stroke="#93c5fd" stroke-width="0.8"/>
  <line x1="360" y1="89" x2="400" y2="89" stroke="#93c5fd" stroke-width="0.8"/>
  <line x1="360" y1="97" x2="415" y2="97" stroke="#93c5fd" stroke-width="0.8"/>
  <line x1="360" y1="105" x2="395" y2="105" stroke="#93c5fd" stroke-width="0.8"/>

  <!-- Column 4 - Newsletter & Social -->
  <rect x="500" y="55" width="85" height="10" rx="2" fill="none" stroke="#ffffff" stroke-width="1.5"/>
  <line x1="500" y1="73" x2="620" y2="73" stroke="#93c5fd" stroke-width="0.8"/>
  <!-- Newsletter input -->
  <rect x="500" y="85" width="140" height="16" rx="3" fill="none" stroke="#93c5fd" stroke-width="1.5"/>
  <rect x="650" y="85" width="50" height="16" rx="3" fill="none" stroke="#93c5fd" stroke-width="1.5"/>
  <!-- Social icons -->
  <line x1="500" y1="110" x2="550" y2="110" stroke="#93c5fd" stroke-width="0.8"/>
  <circle cx="505" cy="125" r="6" fill="none" stroke="#93c5fd" stroke-width="1.5"/>
  <circle cx="522" cy="125" r="6" fill="none" stroke="#93c5fd" stroke-width="1.5"/>
  <circle cx="539" cy="125" r="6" fill="none" stroke="#93c5fd" stroke-width="1.5"/>
  <circle cx="556" cy="125" r="6" fill="none" stroke="#93c5fd" stroke-width="1.5"/>

  <!-- Bottom bar -->
  <rect x="0" y="170" width="800" height="30" fill="none" stroke="#1e3a8a" stroke-width="1"/>
  <line x1="20" y1="185" x2="150" y2="185" stroke="#93c5fd" stroke-width="0.8"/>
  <line x1="650" y1="185" x2="705" y2="185" stroke="#93c5fd" stroke-width="0.8"/>
  <line x1="715" y1="185" x2="780" y2="185" stroke="#93c5fd" stroke-width="0.8"/>
</svg>
