<svg xmlns="http://www.w3.org/2000/svg" viewBox="0 0 300 150">
  <rect width="300" height="150" fill="#1f2937"/>
  <rect x="10" y="15" width="60" height="110" rx="4" fill="#374151"/>
  <text x="40" y="30" font-size="8" fill="#d1d5db" text-anchor="middle" font-weight="bold">درباره ما</text>
  <line x1="15" y1="40" x2="65" y2="40" stroke="#4b5563" stroke-width="1"/>
  <line x1="15" y1="50" x2="60" y2="50" stroke="#6b7280" stroke-width="0.5"/>
  <line x1="15" y1="58" x2="55" y2="58" stroke="#6b7280" stroke-width="0.5"/>
  <line x1="15" y1="66" x2="60" y2="66" stroke="#6b7280" stroke-width="0.5"/>

  <rect x="85" y="15" width="60" height="110" rx="4" fill="#374151"/>
  <text x="115" y="30" font-size="8" fill="#d1d5db" text-anchor="middle" font-weight="bold">لینک‌ها</text>
  <line x1="90" y1="40" x2="140" y2="40" stroke="#4b5563" stroke-width="1"/>
  <line x1="90" y1="50" x2="135" y2="50" stroke="#6b7280" stroke-width="0.5"/>
  <line x1="90" y1="58" x2="130" y2="58" stroke="#6b7280" stroke-width="0.5"/>
  <line x1="90" y1="66" x2="135" y2="66" stroke="#6b7280" stroke-width="0.5"/>

  <rect x="160" y="15" width="60" height="110" rx="4" fill="#374151"/>
  <text x="190" y="30" font-size="8" fill="#d1d5db" text-anchor="middle" font-weight="bold">تماس</text>
  <line x1="165" y1="40" x2="215" y2="40" stroke="#4b5563" stroke-width="1"/>
  <line x1="165" y1="50" x2="210" y2="50" stroke="#6b7280" stroke-width="0.5"/>
  <line x1="165" y1="58" x2="205" y2="58" stroke="#6b7280" stroke-width="0.5"/>

  <rect x="235" y="15" width="55" height="110" rx="4" fill="#374151"/>
  <text x="262" y="30" font-size="8" fill="#d1d5db" text-anchor="middle" font-weight="bold">شبکه‌ها</text>
  <line x1="240" y1="40" x2="285" y2="40" stroke="#4b5563" stroke-width="1"/>
  <circle cx="250" cy="55" r="8" fill="#2563eb"/>
  <circle cx="270" cy="55" r="8" fill="#2563eb"/>
  <circle cx="250" cy="75" r="8" fill="#2563eb"/>
  <circle cx="270" cy="75" r="8" fill="#2563eb"/>

  <line x1="0" y1="135" x2="300" y2="135" stroke="#4b5563" stroke-width="1"/>
  <text x="150" y="145" font-size="6" fill="#9ca3af" text-anchor="middle">© 2024 تمام حقوق محفوظ است</text>
</svg>
