<svg width="800" height="480" viewBox="0 0 800 480" fill="none" xmlns="http://www.w3.org/2000/svg">
  <!-- Background -->
  <rect width="800" height="480" fill="#f1f5f9" stroke="#cbd5e1" stroke-width="1"/>

  <!-- Partner Logos Section -->
  <g transform="translate(60, 40)">
    <!-- Section Title -->
    <rect x="200" y="0" width="280" height="12" rx="2" fill="none" stroke="#1e293b" stroke-width="1.5"/>
    <rect x="220" y="20" width="240" height="8" rx="2" fill="none" stroke="#64748b" stroke-width="1"/>

    <!-- Partner Logos Grid -->
    <g transform="translate(0, 50)">
      <!-- Row 1 -->
      <rect x="0" y="0" width="160" height="80" rx="8" fill="#ffffff" stroke="#cbd5e1" stroke-width="2"/>
      <rect x="40" y="25" width="80" height="30" rx="4" fill="none" stroke="#94a3b8" stroke-width="1.5"/>

      <rect x="180" y="0" width="160" height="80" rx="8" fill="#ffffff" stroke="#cbd5e1" stroke-width="2"/>
      <rect x="220" y="25" width="80" height="30" rx="4" fill="none" stroke="#94a3b8" stroke-width="1.5"/>

      <rect x="360" y="0" width="160" height="80" rx="8" fill="#ffffff" stroke="#cbd5e1" stroke-width="2"/>
      <rect x="400" y="25" width="80" height="30" rx="4" fill="none" stroke="#94a3b8" stroke-width="1.5"/>

      <rect x="540" y="0" width="160" height="80" rx="8" fill="#ffffff" stroke="#cbd5e1" stroke-width="2"/>
      <rect x="580" y="25" width="80" height="30" rx="4" fill="none" stroke="#94a3b8" stroke-width="1.5"/>

      <!-- Row 2 -->
      <rect x="0" y="100" width="160" height="80" rx="8" fill="#ffffff" stroke="#cbd5e1" stroke-width="2"/>
      <rect x="40" y="125" width="80" height="30" rx="4" fill="none" stroke="#94a3b8" stroke-width="1.5"/>

      <rect x="180" y="100" width="160" height="80" rx="8" fill="#ffffff" stroke="#cbd5e1" stroke-width="2"/>
      <rect x="220" y="125" width="80" height="30" rx="4" fill="none" stroke="#94a3b8" stroke-width="1.5"/>

      <rect x="360" y="100" width="160" height="80" rx="8" fill="#ffffff" stroke="#cbd5e1" stroke-width="2"/>
      <rect x="400" y="125" width="80" height="30" rx="4" fill="none" stroke="#94a3b8" stroke-width="1.5"/>

      <rect x="540" y="100" width="160" height="80" rx="8" fill="#ffffff" stroke="#cbd5e1" stroke-width="2"/>
      <rect x="580" y="125" width="80" height="30" rx="4" fill="none" stroke="#94a3b8" stroke-width="1.5"/>
    </g>
  </g>

  <!-- Divider -->
  <line x1="60" y1="290" x2="740" y2="290" stroke="#cbd5e1" stroke-width="1"/>

  <!-- Footer Content -->
  <g transform="translate(60, 320)">
    <!-- Column 1: Logo & About -->
    <rect x="0" y="0" width="100" height="20" rx="4" fill="none" stroke="#1e293b" stroke-width="2"/>
    <rect x="0" y="30" width="140" height="6" rx="1" fill="none" stroke="#64748b" stroke-width="1"/>
    <rect x="0" y="42" width="130" height="6" rx="1" fill="none" stroke="#64748b" stroke-width="1"/>
    <!-- Social Icons -->
    <circle cx="10" cy="70" r="8" fill="none" stroke="#10b981" stroke-width="2"/>
    <circle cx="35" cy="70" r="8" fill="none" stroke="#10b981" stroke-width="2"/>
    <circle cx="60" cy="70" r="8" fill="none" stroke="#10b981" stroke-width="2"/>

    <!-- Column 2: Quick Links -->
    <rect x="190" y="0" width="80" height="10" rx="1" fill="none" stroke="#1e293b" stroke-width="1.5"/>
    <rect x="190" y="20" width="60" height="6" rx="1" fill="none" stroke="#64748b" stroke-width="1"/>
    <rect x="190" y="32" width="55" height="6" rx="1" fill="none" stroke="#64748b" stroke-width="1"/>
    <rect x="190" y="44" width="50" height="6" rx="1" fill="none" stroke="#64748b" stroke-width="1"/>
    <rect x="190" y="56" width="58" height="6" rx="1" fill="none" stroke="#64748b" stroke-width="1"/>

    <!-- Column 3: Resources -->
    <rect x="350" y="0" width="80" height="10" rx="1" fill="none" stroke="#1e293b" stroke-width="1.5"/>
    <rect x="350" y="20" width="60" height="6" rx="1" fill="none" stroke="#64748b" stroke-width="1"/>
    <rect x="350" y="32" width="55" height="6" rx="1" fill="none" stroke="#64748b" stroke-width="1"/>
    <rect x="350" y="44" width="50" height="6" rx="1" fill="none" stroke="#64748b" stroke-width="1"/>

    <!-- Column 4: Contact -->
    <rect x="510" y="0" width="80" height="10" rx="1" fill="none" stroke="#1e293b" stroke-width="1.5"/>
    <circle cx="518" cy="27" r="4" fill="none" stroke="#10b981" stroke-width="1.5"/>
    <rect x="528" y="23" width="100" height="6" rx="1" fill="none" stroke="#64748b" stroke-width="1"/>
    <circle cx="518" cy="41" r="4" fill="none" stroke="#10b981" stroke-width="1.5"/>
    <rect x="528" y="37" width="80" height="6" rx="1" fill="none" stroke="#64748b" stroke-width="1"/>
  </g>

  <!-- Bottom Bar -->
  <line x1="60" y1="430" x2="740" y2="430" stroke="#cbd5e1" stroke-width="1"/>
  <rect x="280" y="448" width="240" height="8" rx="1" fill="none" stroke="#64748b" stroke-width="1"/>
</svg>
